<svg xmlns="http://www.w3.org/2000/svg" width="13.791" height="10.158" viewBox="0 0 13.791 10.158">
  <path id="XMLID_59_" d="M405.042,33.887a3.4,3.4,0,0,0-.556-1.446,1.815,1.815,0,0,0-1.372-.593c-1.928-.148-4.819-.148-4.819-.148h0s-2.892,0-4.819.148a1.972,1.972,0,0,0-1.372.593,3.4,3.4,0,0,0-.556,1.446,20.809,20.809,0,0,0-.148,2.336v1.112a21.7,21.7,0,0,0,.148,2.336,3.151,3.151,0,0,0,.556,1.409,2.5,2.5,0,0,0,1.52.63c1.112.111,4.671.148,4.671.148s2.892,0,4.819-.148a1.972,1.972,0,0,0,1.372-.593,3.311,3.311,0,0,0,.556-1.409,20.8,20.8,0,0,0,.148-2.336V36.3A22.149,22.149,0,0,0,405.042,33.887Zm-4.449,2.743-3.707,2V34.592l1.668.927Z" transform="translate(-391.4 -31.7)" fill="#fff"/>
</svg>
